<svg width="81" height="75" viewBox="0 0 81 75" fill="none" xmlns="http://www.w3.org/2000/svg">
<path d="M0 0H81V74.7415H0V0Z" fill="#3A3335"/>
<path d="M40.5478 50.1107L44.8103 47.8175H68.8094V50.1107H40.5478ZM32.0943 54.6972L36.4285 52.404H68.8094V54.6972H32.0943ZM23.5335 59.2836L27.9034 56.9904H68.8094V59.2836H23.5335ZM40.2612 24.8855L35.9987 27.1787H11.9996V24.8855H40.2612ZM48.7146 20.2991L44.3805 22.5923H11.9996V20.2991H48.7146ZM57.2755 15.7127L52.9055 18.0059H11.9996V15.7127H57.2755ZM68.8094 16.5089V19.1843L11.9996 53.1365V50.4611L68.8094 16.5089ZM68.8094 21.9235V24.6307L11.9996 58.551V55.8119L68.8094 21.9235ZM68.8094 27.3061V29.9815L15.8323 61.5768H68.8094V63.87H11.9996C11.9996 63.87 11.9996 62.9676 11.9996 61.1627L68.8094 27.3061ZM64.9767 13.4195H11.9996V11.1263H68.8094C68.8094 11.1263 68.8094 12.0393 68.8094 13.8654L11.9996 47.722V45.0784L64.9767 13.4195Z" fill="#D5B9B1"/>
</svg>
