<svg xmlns="http://www.w3.org/2000/svg" width="96" height="133" viewBox="0 0 96 133" fill="none">
  <path d="M0 0H96V90.3565H0V0Z" fill="#3A3335"/>
  <path d="M48.0566 60.5799L53.1085 57.8076H81.5519V60.5799H48.0566ZM38.0377 66.1245L43.1745 63.3522H81.5519V66.1245H38.0377ZM27.8915 71.6691L33.0708 68.8968H81.5519V71.6691H27.8915ZM47.717 30.0846L42.6651 32.8569H14.2217V30.0846H47.717ZM57.7359 24.54L52.5991 27.3123H14.2217V24.54H57.7359ZM67.8821 18.9954L62.7028 21.7677H14.2217V18.9954H67.8821ZM81.5519 19.958V23.1924L14.2217 64.2378V61.0035L81.5519 19.958ZM81.5519 26.5037V29.7766L14.2217 70.7835V67.4722L81.5519 26.5037ZM81.5519 33.0109V36.2453L18.7642 74.4414H81.5519V77.2137H14.2217C14.2217 77.2137 14.2217 76.1228 14.2217 73.9409L81.5519 33.0109ZM77.0094 16.2231H14.2217V13.4508H81.5519C81.5519 13.4508 81.5519 14.5546 81.5519 16.7622L14.2217 57.6921V54.4963L77.0094 16.2231Z" fill="#D5B9B1"/>
  <path d="M28.7057 132.265H1L14.9925 109.999H1V102.401H28.7057L14.7133 124.666H28.7057V132.265Z" fill="#3A3335"/>
  <path d="M46.1421 124.946C46.473 125.039 46.8039 125.104 47.1349 125.141C47.4658 125.16 47.7968 125.169 48.1277 125.169C48.955 125.169 49.7514 125.067 50.5167 124.862C51.282 124.657 51.9955 124.368 52.6574 123.996C53.34 123.605 53.9398 123.139 54.4569 122.599C54.9947 122.04 55.429 121.426 55.76 120.755L61.9651 126.371C61.1791 127.376 60.269 128.28 59.2348 129.08C58.2213 129.881 57.1147 130.561 55.9151 131.12C54.7361 131.679 53.4848 132.098 52.161 132.377C50.8579 132.675 49.5135 132.824 48.1277 132.824C45.7904 132.824 43.5876 132.433 41.5193 131.651C39.4716 130.868 37.6721 129.779 36.1208 128.382C34.5902 126.985 33.3803 125.328 32.4909 123.409C31.6015 121.472 31.1568 119.349 31.1568 117.04C31.1568 114.674 31.6015 112.514 32.4909 110.558C33.3803 108.603 34.5902 106.936 36.1208 105.557C37.6721 104.179 39.4716 103.108 41.5193 102.345C43.5876 101.581 45.7904 101.199 48.1277 101.199C49.5135 101.199 50.8683 101.348 52.192 101.646C53.5158 101.944 54.7671 102.373 55.9461 102.931C57.1458 103.49 58.2627 104.179 59.2969 104.999C60.3311 105.8 61.2411 106.703 62.0271 107.709L46.1421 124.946ZM50.4856 109.217C50.0926 109.087 49.6997 109.003 49.3067 108.966C48.9344 108.929 48.5414 108.91 48.1277 108.91C46.9694 108.91 45.8732 109.105 44.839 109.497C43.8255 109.869 42.9361 110.409 42.1708 111.117C41.4262 111.825 40.8367 112.681 40.4024 113.687C39.968 114.674 39.7508 115.792 39.7508 117.04C39.7508 117.319 39.7612 117.636 39.7818 117.989C39.8232 118.343 39.8749 118.707 39.937 119.079C40.0197 119.433 40.1128 119.777 40.2162 120.113C40.3196 120.448 40.4541 120.746 40.6195 121.007L50.4856 109.217Z" fill="#3A3335"/>
  <path d="M74.7786 132.265H66.3086V102.345H68.3563L71.1486 105.25C72.5137 104.133 74.0546 103.276 75.7714 102.68C77.5088 102.065 79.3186 101.758 81.2009 101.758C83.2279 101.758 85.1411 102.112 86.9406 102.82C88.74 103.509 90.312 104.468 91.6564 105.697C93.0009 106.908 94.0557 108.333 94.821 109.972C95.607 111.592 96 113.324 96 115.168V132.265H87.5301V115.168C87.5301 114.386 87.3646 113.65 87.0336 112.961C86.7027 112.253 86.2477 111.638 85.6685 111.117C85.0894 110.595 84.4172 110.186 83.6519 109.888C82.8866 109.59 82.0696 109.441 81.2009 109.441C80.3115 109.441 79.4738 109.59 78.6878 109.888C77.9018 110.186 77.2193 110.595 76.6401 111.117C76.061 111.638 75.6059 112.253 75.275 112.961C74.944 113.65 74.7786 114.386 74.7786 115.168V132.265Z" fill="#3A3335"/>
</svg>