<svg width="36" height="36" viewBox="0 0 36 36" fill="none" xmlns="http://www.w3.org/2000/svg">
<path d="M4.5 11.7C4.5 9.17976 4.5 7.91965 4.99047 6.95704C5.4219 6.11031 6.11031 5.4219 6.95704 4.99047C7.91965 4.5 9.17976 4.5 11.7 4.5H24.3C26.8202 4.5 28.0804 4.5 29.043 4.99047C29.8897 5.4219 30.5781 6.11031 31.0095 6.95704C31.5 7.91965 31.5 9.17976 31.5 11.7V24.3C31.5 26.8202 31.5 28.0804 31.0095 29.043C30.5781 29.8897 29.8897 30.5781 29.043 31.0095C28.0804 31.5 26.8202 31.5 24.3 31.5H11.7C9.17976 31.5 7.91965 31.5 6.95704 31.0095C6.11031 30.5781 5.4219 29.8897 4.99047 29.043C4.5 28.0804 4.5 26.8202 4.5 24.3V11.7Z" stroke="#0F7173" stroke-width="2.5" stroke-linecap="round" stroke-linejoin="round"/>
<path fill-rule="evenodd" clip-rule="evenodd" d="M17.9949 13.6019C16.4954 11.8488 13.9948 11.3772 12.116 12.9825C10.2372 14.5878 9.97273 17.2717 11.4481 19.1703C12.3932 20.3863 14.8134 22.6414 16.4314 24.1055C16.969 24.5921 17.2379 24.8354 17.5599 24.933C17.8367 25.0168 18.153 25.0168 18.4298 24.933C18.7519 24.8354 19.0207 24.5921 19.5584 24.1055C21.1763 22.6414 23.5966 20.3863 24.5416 19.1703C26.017 17.2717 25.7848 14.5709 23.8737 12.9825C21.9626 11.3941 19.4944 11.8488 17.9949 13.6019Z" stroke="#0F7173" stroke-width="2.5" stroke-linecap="round" stroke-linejoin="round"/>
</svg>
